<?xml version="1.0" encoding="UTF-8" standalone="no"?>
<svg
   viewBox="0 0 354.15329 299.16"
   version="1.1"
   id="svg321"
   sodipodi:docname="illustrationAbout.svg"
   width="354.15329"
   height="299.16"
   inkscape:version="1.1.1 (3bf5ae0d25, 2021-09-20)"
   xmlns:inkscape="http://www.inkscape.org/namespaces/inkscape"
   xmlns:sodipodi="http://sodipodi.sourceforge.net/DTD/sodipodi-0.dtd"
   xmlns="http://www.w3.org/2000/svg"
   xmlns:svg="http://www.w3.org/2000/svg">
  <defs
     id="defs325" />
  <sodipodi:namedview
     id="namedview323"
     pagecolor="#ffffff"
     bordercolor="#666666"
     borderopacity="1.0"
     inkscape:pageshadow="2"
     inkscape:pageopacity="0.0"
     inkscape:pagecheckerboard="0"
     showgrid="false"
     inkscape:zoom="1.165312"
     inkscape:cx="181.49646"
     inkscape:cy="141.16391"
     inkscape:window-width="1920"
     inkscape:window-height="1009"
     inkscape:window-x="-8"
     inkscape:window-y="-8"
     inkscape:window-maximized="1"
     inkscape:current-layer="svg321" />
  <g
     id="freepik--trash-bin--inject-17"
     transform="translate(-76.386717,-119.82)">
    <path
       d="m 421.43,394.19 a 3,3 0 0 0 -2.39,-4.27 6.36,6.36 0 0 0 -2,-7 1.47,1.47 0 0 0 -0.87,-0.39 1.7,1.7 0 0 0 -0.94,0.41 l -5.58,4 a 3.4,3.4 0 0 0 -1.11,1.09 c -1.14,2.21 3,5 1.28,6.86 -0.48,0.52 -1.26,0.63 -1.87,1 -1.32,0.83 -1.48,2.65 -2.1,4.09 -0.62,1.44 -2.78,2.55 -3.6,1.22 0.61,-1.38 -1.24,-2.57 -2.73,-2.74 -1.49,-0.17 -3.06,-0.26 -3.89,-1.66 -2.12,1.85 -6.88,-3.33 -6.77,-5.41 -1.75,0.13 -2.94,1.76 -3.32,3.4 a 25.05,25.05 0 0 0 -0.18,5.2 c 0,3.38 -1.14,6.7 -1.08,10.08 0,2.63 1.06,5.55 3.47,6.61 a 9.05,9.05 0 0 0 3.74,0.5 L 418.92,417 a 4,4 0 0 0 1.92,-0.32 c 1.24,-0.64 1.5,-2.27 1.62,-3.66 l 1.47,-17.88 z"
       style="fill:#407bff"
       id="path2" />
    <path
       d="m 421.43,394.19 a 3,3 0 0 0 -2.39,-4.27 6.36,6.36 0 0 0 -2,-7 1.47,1.47 0 0 0 -0.87,-0.39 1.7,1.7 0 0 0 -0.94,0.41 l -5.58,4 a 3.4,3.4 0 0 0 -1.11,1.09 c -1.14,2.21 3,5 1.28,6.86 -0.48,0.52 -1.26,0.63 -1.87,1 -1.32,0.83 -1.48,2.65 -2.1,4.09 -0.62,1.44 -2.78,2.55 -3.6,1.22 0.61,-1.38 -1.24,-2.57 -2.73,-2.74 -1.49,-0.17 -3.06,-0.26 -3.89,-1.66 -2.12,1.85 -6.88,-3.33 -6.77,-5.41 -1.75,0.13 -2.94,1.76 -3.32,3.4 a 25.05,25.05 0 0 0 -0.18,5.2 c 0,3.38 -1.14,6.7 -1.08,10.08 0,2.63 1.06,5.55 3.47,6.61 a 9.05,9.05 0 0 0 3.74,0.5 L 418.92,417 a 4,4 0 0 0 1.92,-0.32 c 1.24,-0.64 1.5,-2.27 1.62,-3.66 l 1.47,-17.88 z"
       style="opacity:0.3;isolation:isolate;fill:#ffffff"
       id="path4" />
    <path
       d="m 423,365.2 h -42.53 l 0.35,4.3 0.25,3.07 0.65,8 0.37,4.59 0.49,6.11 0.21,2.62 0.07,0.78 0.25,3.08 0.34,4.22 0.21,2.62 0.22,2.66 0.25,3.08 0.19,2.33 0.21,2.62 0.09,1.14 h 39.06 l 0.09,-1.14 0.21,-2.61 0.19,-2.35 0.25,-3.08 0.22,-2.65 0.21,-2.62 0.34,-4.23 0.25,-3.07 0.06,-0.78 0.21,-2.62 0.5,-6.11 0.37,-4.58 0.64,-8 0.25,-3.07 0.35,-4.3 z m 2.56,2.82 v 0 l -0.82,-0.82 h 0.89 z m -0.21,2.61 -0.08,1 -3.81,3.81 -4.37,-4.37 3.91,-3.87 h 1 z m -1.1,13.62 -2.76,2.75 -4.37,-4.37 4.37,-4.36 3,3 z m -40.5,-2.92 v 0 l 3,-3 4.37,4.36 -4.32,4.31 -2.8,-2.75 z m 36.3,-4.44 -4.37,4.37 -4.37,-4.37 4.37,-4.37 z m -6.87,-9.69 h 5 l -2.5,2.5 z m 1.08,15.47 -4.33,4.33 -4.37,-4.37 4.37,-4.36 z m -14.51,5.78 4.37,-4.36 4.36,4.36 -4.36,4.37 z m 3,5.78 -4.37,4.37 -4.38,-4.36 4.37,-4.37 z m 7.2,-4.36 4.36,4.37 -4.36,4.36 -4.37,-4.37 z m -5.78,-8.61 -4.37,-4.37 4.37,-4.37 4.36,4.37 z m -1.42,1.41 -4.38,4.33 -4.37,-4.33 4.37,-4.36 z m -10.15,-1.41 -4.36,-4.37 4.36,-4.37 4.37,4.37 z m 0,2.83 4.37,4.36 -4.37,4.37 -4.36,-4.37 z m 4.4,15.91 -4.37,4.36 -4.41,-4.36 4.36,-4.37 z m 1.41,1.41 4.37,4.37 -4.36,4.37 -4.42,-4.35 z m 1.42,-1.41 4.37,-4.37 4.36,4.37 -4.36,4.36 z m 10.15,1.41 4.36,4.37 -4.36,4.37 -4.37,-4.37 z m 5.78,5.78 4.37,4.37 -2.83,2.83 h -3.08 l -2.83,-2.83 z m -4.42,-7.19 4.37,-4.37 4.37,4.37 -4.37,4.36 z m 0,-11.57 4.37,-4.36 4.37,4.36 -4.37,4.37 z m 3,-17.34 -4.36,4.37 -4.37,-4.37 3.91,-3.91 h 0.92 z m -10.14,-1.41 -2.5,-2.5 h 5 z m -1.42,1.41 -4.36,4.37 -4.42,-4.35 3.91,-3.91 h 0.92 z m -7.65,-3.91 -2.5,2.5 -2.49,-2.5 z m -7.82,0 3.91,3.91 -4.37,4.37 -3.8,-3.81 -0.08,-1 3.42,-3.43 z m -3.74,0 -0.81,0.81 v 0 l -0.07,-0.81 z m -0.27,7.55 2.14,2.14 -1.82,1.82 z m 1.19,14.65 -0.17,-2.07 v 0 l 1.12,1.12 z m 0.21,2.63 2.15,-2.16 4.37,4.37 -4.37,4.36 -1.85,-1.74 z m 0.65,8.08 v -0.19 l 0.1,0.1 -0.09,0.09 z m 0.76,9.31 -0.55,-6.7 1.29,-1.29 4.37,4.37 -4.37,4.36 z m 0.4,5 -0.08,-1 0.42,-0.42 1.42,1.42 z m 1.76,-2.83 4.36,-4.37 4.37,4.37 -2.83,2.83 H 391 Z m 8.73,2.83 1.42,-1.42 1.42,1.42 z m 5.66,0 -2.83,-2.83 4.37,-4.37 4.36,4.37 -2.82,2.83 z m 5.9,0 1.42,-1.42 1.42,1.42 z m 13.32,0 h -1.76 l 1.42,-1.42 0.42,0.42 z m 0.41,-5 -0.75,0.74 -4.37,-4.36 4.37,-4.37 1.29,1.29 z m 0.77,-9.51 v 0.2 l -0.09,-0.09 0.11,-0.11 z m 0.25,-3.07 -1.77,1.76 -4.37,-4.36 4.37,-4.37 2.16,2.16 z m 0.6,-7.43 -1,-1 1.13,-1.12 z m 1.19,-14.67 -0.32,4 -1.83,-1.83 2.15,-2.15 z"
       style="fill:#407bff"
       id="path6" />
    <g
       style="opacity:0.6;isolation:isolate"
       id="g10">
      <path
         d="m 423,365.2 h -42.53 l 0.35,4.3 0.25,3.07 0.65,8 0.37,4.59 0.49,6.11 0.21,2.62 0.07,0.78 0.25,3.08 0.34,4.22 0.21,2.62 0.22,2.66 0.25,3.08 0.19,2.33 0.21,2.62 0.09,1.14 h 39.06 l 0.09,-1.14 0.21,-2.61 0.19,-2.35 0.25,-3.08 0.22,-2.65 0.21,-2.62 0.34,-4.23 0.25,-3.07 0.06,-0.78 0.21,-2.62 0.5,-6.11 0.37,-4.58 0.64,-8 0.25,-3.07 0.35,-4.3 z m 2.56,2.82 v 0 l -0.82,-0.82 h 0.89 z m -0.21,2.61 -0.08,1 -3.81,3.81 -4.37,-4.37 3.91,-3.87 h 1 z m -1.1,13.62 -2.76,2.75 -4.37,-4.37 4.37,-4.36 3,3 z m -40.5,-2.92 v 0 l 3,-3 4.37,4.36 -4.32,4.31 -2.8,-2.75 z m 36.3,-4.44 -4.37,4.37 -4.37,-4.37 4.37,-4.37 z m -6.87,-9.69 h 5 l -2.5,2.5 z m 1.08,15.47 -4.33,4.33 -4.37,-4.37 4.37,-4.36 z m -14.51,5.78 4.37,-4.36 4.36,4.36 -4.36,4.37 z m 3,5.78 -4.37,4.37 -4.38,-4.36 4.37,-4.37 z m 7.2,-4.36 4.36,4.37 -4.36,4.36 -4.37,-4.37 z m -5.78,-8.61 -4.37,-4.37 4.37,-4.37 4.36,4.37 z m -1.42,1.41 -4.38,4.33 -4.37,-4.33 4.37,-4.36 z m -10.15,-1.41 -4.36,-4.37 4.36,-4.37 4.37,4.37 z m 0,2.83 4.37,4.36 -4.37,4.37 -4.36,-4.37 z m 4.4,15.91 -4.37,4.36 -4.41,-4.36 4.36,-4.37 z m 1.41,1.41 4.37,4.37 -4.36,4.37 -4.42,-4.35 z m 1.42,-1.41 4.37,-4.37 4.36,4.37 -4.36,4.36 z m 10.15,1.41 4.36,4.37 -4.36,4.37 -4.37,-4.37 z m 5.78,5.78 4.37,4.37 -2.83,2.83 h -3.08 l -2.83,-2.83 z m -4.42,-7.19 4.37,-4.37 4.37,4.37 -4.37,4.36 z m 0,-11.57 4.37,-4.36 4.37,4.36 -4.37,4.37 z m 3,-17.34 -4.36,4.37 -4.37,-4.37 3.91,-3.91 h 0.92 z m -10.14,-1.41 -2.5,-2.5 h 5 z m -1.42,1.41 -4.36,4.37 -4.42,-4.35 3.91,-3.91 h 0.92 z m -7.65,-3.91 -2.5,2.5 -2.49,-2.5 z m -7.82,0 3.91,3.91 -4.37,4.37 -3.8,-3.81 -0.08,-1 3.42,-3.43 z m -3.74,0 -0.81,0.81 v 0 l -0.07,-0.81 z m -0.27,7.55 2.14,2.14 -1.82,1.82 z m 1.19,14.65 -0.17,-2.07 v 0 l 1.12,1.12 z m 0.21,2.63 2.15,-2.16 4.37,4.37 -4.37,4.36 -1.85,-1.74 z m 0.65,8.08 v -0.19 l 0.1,0.1 -0.09,0.09 z m 0.76,9.31 -0.55,-6.7 1.29,-1.29 4.37,4.37 -4.37,4.36 z m 0.4,5 -0.08,-1 0.42,-0.42 1.42,1.42 z m 1.76,-2.83 4.36,-4.37 4.37,4.37 -2.83,2.83 H 391 Z m 8.73,2.83 1.42,-1.42 1.42,1.42 z m 5.66,0 -2.83,-2.83 4.37,-4.37 4.36,4.37 -2.82,2.83 z m 5.9,0 1.42,-1.42 1.42,1.42 z m 13.32,0 h -1.76 l 1.42,-1.42 0.42,0.42 z m 0.41,-5 -0.75,0.74 -4.37,-4.36 4.37,-4.37 1.29,1.29 z m 0.77,-9.51 v 0.2 l -0.09,-0.09 0.11,-0.11 z m 0.25,-3.07 -1.77,1.76 -4.37,-4.36 4.37,-4.37 2.16,2.16 z m 0.6,-7.43 -1,-1 1.13,-1.12 z m 1.19,-14.67 -0.32,4 -1.83,-1.83 2.15,-2.15 z"
         style="fill:#ffffff"
         id="path8" />
    </g>
    <rect
       x="377.75"
       y="363.41"
       width="52.799999"
       height="5.5700002"
       rx="1.64"
       transform="rotate(180,404.145,366.2)"
       style="fill:#407bff"
       id="rect12" />
    <rect
       x="381.54999"
       y="413.41"
       width="45.189999"
       height="5.5700002"
       rx="1.64"
       style="fill:#407bff"
       id="rect14" />
  </g>
  <g
     id="freepik--Desk--inject-17"
     transform="translate(-76.386717,-119.82)">
    <polygon
       points="212.98,252.96 233.3,256.01 233.3,258.57 190.5,258.57 190.5,256.01 199.26,252.96 203.55,216.17 216.4,216.17 "
       style="fill:#263238"
       id="polygon17" />
    <path
       d="m 253.43,239.52 a 4,4 0 0 1 -4,4.47 h -77.82 a 5,5 0 0 1 -4.87,-4.47 l -4.62,-49.8 a 4.31,4.31 0 0 1 0.1,-1.45 4,4 0 0 1 3.93,-3 h 77.79 a 5,5 0 0 1 4.87,4.47 z"
       style="fill:#263238"
       id="path19" />
    <path
       d="m 171.61,241.48 a 2.47,2.47 0 0 1 -2.37,-2.19 l -4.62,-49.8 a 1.73,1.73 0 0 1 0,-0.61 1.46,1.46 0 0 1 1.5,-1.13 h 77.79 a 2.49,2.49 0 0 1 2.38,2.2 l 4.62,49.8 a 1.65,1.65 0 0 1 -0.38,1.26 1.5,1.5 0 0 1 -1.16,0.47 z"
       style="fill:#407bff"
       id="path21" />
    <path
       d="m 171.61,241.48 a 2.47,2.47 0 0 1 -2.37,-2.19 l -4.62,-49.8 a 1.73,1.73 0 0 1 0,-0.61 1.46,1.46 0 0 1 1.5,-1.13 h 77.79 a 2.49,2.49 0 0 1 2.38,2.2 l 4.62,49.8 a 1.65,1.65 0 0 1 -0.38,1.26 1.5,1.5 0 0 1 -1.16,0.47 z"
       style="opacity:0.6;isolation:isolate;fill:#ffffff"
       id="path23" />
    <polygon
       points="139.21,265.74 147.34,265.74 156.34,418.98 150.22,418.98 "
       style="fill:#263238"
       id="polygon25" />
    <polygon
       points="139.75,273.35 139.21,265.98 147.34,265.98 147.78,273.35 156.35,418.98 150.22,418.98 "
       style="opacity:0.4;isolation:isolate;fill:#ffffff"
       id="polygon27" />
    <polygon
       points="139.21,265.98 147.34,265.98 147.78,272.98 139.75,272.98 "
       style="opacity:0.2;isolation:isolate"
       id="polygon29" />
    <polygon
       points="294.18,265.74 302.3,265.74 301.3,418.98 295.18,418.98 "
       style="fill:#263238"
       id="polygon31" />
    <polygon
       points="301.31,418.98 295.18,418.98 294.34,290.71 294.18,265.98 302.31,265.98 302.15,290.71 "
       style="opacity:0.5;isolation:isolate;fill:#ffffff"
       id="polygon33" />
    <polygon
       points="294.34,290.98 294.18,265.98 302.31,265.98 302.15,290.98 "
       style="opacity:0.2;isolation:isolate"
       id="polygon35" />
    <polygon
       points="349.21,265.74 357.34,265.74 366.34,418.98 360.22,418.98 "
       style="fill:#263238"
       id="polygon37" />
    <polygon
       points="349.75,273.35 349.21,265.98 357.34,265.98 357.78,273.35 366.35,418.98 360.22,418.98 "
       style="opacity:0.5;isolation:isolate;fill:#ffffff"
       id="polygon39" />
    <polygon
       points="349.21,265.98 357.34,265.98 357.78,272.98 349.75,272.98 "
       style="opacity:0.2;isolation:isolate"
       id="polygon41" />
    <polygon
       points="89.14,265.74 97.27,265.74 86.26,418.98 80.14,418.98 "
       style="fill:#263238"
       id="polygon43" />
    <polygon
       points="86.26,418.98 80.14,418.98 88.7,273.35 89.14,265.98 97.27,265.98 96.73,273.35 "
       style="opacity:0.5;isolation:isolate;fill:#ffffff"
       id="polygon45" />
    <polygon
       points="96.73,272.98 88.7,272.98 89.14,265.98 97.27,265.98 "
       style="opacity:0.2;isolation:isolate"
       id="polygon47" />
    <path
       d="m 82.7,261.9 h 281.08 v 5.51 a 2.16,2.16 0 0 1 -2.16,2.16 H 84.86 a 2.16,2.16 0 0 1 -2.16,-2.16 z"
       style="fill:#407bff"
       id="path49" />
    <path
       d="m 82.7,261.9 h 281.08 v 5.51 a 2.16,2.16 0 0 1 -2.16,2.16 H 84.86 a 2.16,2.16 0 0 1 -2.16,-2.16 z"
       style="opacity:0.6;isolation:isolate;fill:#ffffff"
       id="path51" />
    <rect
       x="82.699997"
       y="261.89999"
       width="281.07999"
       height="3.8399999"
       style="opacity:0.2;isolation:isolate"
       id="rect53" />
    <path
       d="M 367.58,262.9 H 78.9 a 2.16,2.16 0 0 1 -2.16,-2.16 v 0 a 2.17,2.17 0 0 1 2.16,-2.17 h 288.68 a 2.17,2.17 0 0 1 2.16,2.17 v 0 a 2.16,2.16 0 0 1 -2.16,2.16 z"
       style="fill:#407bff"
       id="path55" />
    <path
       d="M 367.58,262.9 H 78.9 a 2.16,2.16 0 0 1 -2.16,-2.16 v 0 a 2.17,2.17 0 0 1 2.16,-2.17 h 288.68 a 2.17,2.17 0 0 1 2.16,2.17 v 0 a 2.16,2.16 0 0 1 -2.16,2.16 z"
       style="opacity:0.6;isolation:isolate;fill:#ffffff"
       id="path57" />
    <polygon
       points="257.81,254.84 276.49,256.71 277.2,258.57 216.28,258.57 217.26,254.84 "
       style="fill:#263238"
       id="polygon59" />
    <polygon
       points="216.28,258.57 217.26,254.84 257.81,254.84 257.81,258.57 "
       style="opacity:0.4;isolation:isolate"
       id="polygon61" />
    <polygon
       points="116.98,252.96 137.3,256.01 137.3,258.57 94.5,258.57 94.5,256.01 103.27,252.96 117.55,216.17 130.4,216.17 "
       style="fill:#263238"
       id="polygon63" />
    <path
       d="m 155.17,189.16 a 5.58,5.58 0 0 0 -5.25,-4.51 H 80.13 a 3.58,3.58 0 0 0 -3.68,3 4.3,4.3 0 0 0 0,1.47 l 8.85,50.3 a 5.56,5.56 0 0 0 5.28,4.58 h 69.79 a 3.66,3.66 0 0 0 3.65,-4.51 z"
       style="fill:#263238"
       id="path65" />
    <path
       d="m 164,239.46 a 3.66,3.66 0 0 1 -3.65,4.51 H 92.58 a 5.56,5.56 0 0 1 -5.25,-4.51 l -8.85,-50.3 a 4.3,4.3 0 0 1 0,-1.47 3.58,3.58 0 0 1 3.68,-3 h 67.79 a 5.58,5.58 0 0 1 5.25,4.51 z"
       style="opacity:0.2;isolation:isolate;fill:#ffffff"
       id="path67" />
    <path
       d="M 92.37,241.45 A 2.78,2.78 0 0 1 89.8,239.23 L 81,188.93 a 1.88,1.88 0 0 1 0,-0.62 1.33,1.33 0 0 1 1.41,-1.13 h 67.79 a 2.76,2.76 0 0 1 2.56,2.21 l 8.86,50.3 a 1.62,1.62 0 0 1 -0.28,1.28 1.4,1.4 0 0 1 -1.11,0.48 z"
       style="fill:#407bff"
       id="path69" />
    <path
       d="M 92.37,241.45 A 2.78,2.78 0 0 1 89.8,239.23 L 81,188.93 a 1.88,1.88 0 0 1 0,-0.62 1.33,1.33 0 0 1 1.41,-1.13 h 67.79 a 2.76,2.76 0 0 1 2.56,2.21 l 8.86,50.3 a 1.62,1.62 0 0 1 -0.28,1.28 1.4,1.4 0 0 1 -1.11,0.48 z"
       style="opacity:0.6;isolation:isolate;fill:#407bff"
       id="path71" />
    <polygon
       points="284.98,252.96 305.3,256.01 305.3,258.57 262.5,258.57 262.5,256.01 271.26,252.96 285.55,216.17 298.4,216.17 "
       style="fill:#263238"
       id="polygon73" />
    <path
       d="m 330.58,189.72 a 4.68,4.68 0 0 0 -4.64,-4.47 h -69.79 a 4.23,4.23 0 0 0 -4.08,3 4.37,4.37 0 0 0 -0.18,1.46 l 2.05,49.79 a 4.68,4.68 0 0 0 4.64,4.46 h 69.79 a 4.24,4.24 0 0 0 4.26,-4.46 z"
       style="fill:#263238"
       id="path75" />
    <path
       d="m 332.63,239.51 a 4.24,4.24 0 0 1 -4.26,4.46 h -67.79 a 4.68,4.68 0 0 1 -4.64,-4.46 l -2.05,-49.79 a 4.37,4.37 0 0 1 0.18,-1.46 4.23,4.23 0 0 1 4.08,-3 h 67.79 a 4.68,4.68 0 0 1 4.64,4.47 z"
       style="opacity:0.4;isolation:isolate;fill:#ffffff"
       id="path77" />
    <path
       d="m 260.71,241.47 a 2.31,2.31 0 0 1 -2.26,-2.19 l -2.05,-49.79 a 2,2 0 0 1 0.06,-0.62 1.57,1.57 0 0 1 1.56,-1.12 h 67.79 a 2.34,2.34 0 0 1 2.27,2.2 l 2.05,49.79 a 1.69,1.69 0 0 1 -0.45,1.26 1.63,1.63 0 0 1 -1.18,0.47 z"
       style="fill:#407bff"
       id="path79" />
    <path
       d="m 260.71,241.47 a 2.31,2.31 0 0 1 -2.26,-2.19 l -2.05,-49.79 a 2,2 0 0 1 0.06,-0.62 1.57,1.57 0 0 1 1.56,-1.12 h 67.79 a 2.34,2.34 0 0 1 2.27,2.2 l 2.05,49.79 a 1.69,1.69 0 0 1 -0.45,1.26 1.63,1.63 0 0 1 -1.18,0.47 z"
       style="opacity:0.6;isolation:isolate;fill:#407bff"
       id="path81" />
    <path
       d="m 260.71,241.47 a 2.31,2.31 0 0 1 -2.26,-2.19 l -2.05,-49.79 a 2,2 0 0 1 0.06,-0.62 1.57,1.57 0 0 1 1.56,-1.12 h 67.79 a 2.34,2.34 0 0 1 2.27,2.2 l 2.05,49.79 a 1.69,1.69 0 0 1 -0.45,1.26 1.63,1.63 0 0 1 -1.18,0.47 z"
       style="opacity:0.4;isolation:isolate"
       id="path83" />
    <polygon
       points="272.64,192.12 322.41,192.12 322.45,193.05 272.68,193.05 "
       style="fill:#ffffff"
       id="polygon85" />
    <polygon
       points="278.25,194.96 322.53,194.96 322.57,195.89 278.29,195.89 "
       style="fill:#ffffff"
       id="polygon87" />
    <polygon
       points="294.67,197.81 322.66,197.81 322.7,198.73 294.71,198.73 "
       style="fill:#ffffff"
       id="polygon89" />
    <polygon
       points="286.44,200.65 322.78,200.65 322.83,201.57 286.49,201.57 "
       style="fill:#ffffff"
       id="polygon91" />
    <polygon
       points="298.81,203.49 322.91,203.49 322.95,204.42 298.85,204.42 "
       style="fill:#ffffff"
       id="polygon93" />
    <polygon
       points="273.53,212.16 323.29,212.16 323.33,213.09 273.57,213.09 "
       style="fill:#ffffff"
       id="polygon95" />
    <polygon
       points="279.14,215 323.42,215 323.46,215.93 279.18,215.93 "
       style="fill:#ffffff"
       id="polygon97" />
    <polygon
       points="295.56,217.84 323.55,217.84 323.59,218.77 295.6,218.77 "
       style="fill:#ffffff"
       id="polygon99" />
    <polygon
       points="287.33,220.69 323.67,220.69 323.71,221.62 287.37,221.62 "
       style="fill:#ffffff"
       id="polygon101" />
    <polygon
       points="299.69,223.53 323.8,223.53 323.84,224.46 299.73,224.46 "
       style="fill:#ffffff"
       id="polygon103" />
    <polygon
       points="169.18,194.87 212.6,194.87 215.15,223.27 171.73,223.27 "
       style="fill:#407bff"
       id="polygon105" />
    <polygon
       points="169.18,194.87 212.6,194.87 215.15,223.27 171.73,223.27 "
       style="fill:#407bff"
       id="polygon107" />
    <polygon
       points="171.25,200.19 211.49,200.19 213.43,221.85 173.19,221.85 "
       style="fill:#263238"
       id="polygon109" />
    <polygon
       points="174.81,203.43 204.58,203.43 204.67,204.36 174.9,204.36 "
       style="fill:#ffffff"
       id="polygon111" />
    <polygon
       points="175.07,206.28 189.35,206.28 189.44,207.21 175.16,207.21 "
       style="fill:#ffffff"
       id="polygon113" />
    <polygon
       points="175.33,209.13 193.32,209.13 193.4,210.06 175.41,210.06 "
       style="fill:#ffffff"
       id="polygon115" />
    <polygon
       points="175.58,211.99 181.92,211.99 182.01,212.92 175.67,212.92 "
       style="fill:#ffffff"
       id="polygon117" />
    <polygon
       points="175.84,214.84 179.94,214.84 180.03,215.77 175.92,215.77 "
       style="fill:#ffffff"
       id="polygon119" />
    <polygon
       points="197.85,209.07 241.27,209.07 243.82,237.47 200.41,237.47 "
       style="fill:#407bff"
       id="polygon121" />
    <polygon
       points="197.85,209.07 241.27,209.07 243.82,237.47 200.41,237.47 "
       style="fill:#407bff"
       id="polygon123" />
    <polygon
       points="199.92,214.39 240.16,214.39 242.11,236.05 201.87,236.05 "
       style="fill:#263238"
       id="polygon125" />
    <polygon
       points="203.49,217.63 233.26,217.63 233.34,218.56 203.57,218.56 "
       style="fill:#ffffff"
       id="polygon127" />
    <polygon
       points="203.75,220.48 218.03,220.48 218.11,221.41 203.83,221.41 "
       style="fill:#ffffff"
       id="polygon129" />
    <polygon
       points="204,223.33 221.99,223.33 222.08,224.27 204.09,224.27 "
       style="fill:#ffffff"
       id="polygon131" />
    <polygon
       points="204.26,226.19 210.6,226.19 210.68,227.12 204.34,227.12 "
       style="fill:#ffffff"
       id="polygon133" />
    <polygon
       points="204.52,229.04 208.62,229.04 208.71,229.97 204.6,229.97 "
       style="fill:#ffffff"
       id="polygon135" />
    <polygon
       points="83.78,191.92 151.43,191.92 159.34,236.05 91.7,236.05 "
       style="opacity:0.6;isolation:isolate;fill:#ffffff"
       id="polygon137" />
    <polygon
       points="86.23,197.98 103.83,197.98 110.35,234.32 92.75,234.32 "
       style="opacity:0.6;isolation:isolate;fill:#ffffff"
       id="polygon139" />
    <polygon
       points="151.09,197.98 105.42,197.98 111.93,234.32 157.61,234.32 "
       style="opacity:0.6;isolation:isolate;fill:#ffffff"
       id="polygon141" />
    <g
       style="opacity:0.4;isolation:isolate"
       id="g167">
      <polygon
         points="89.14,200.77 101.91,200.77 102.07,201.69 89.3,201.69 "
         id="polygon143" />
      <polygon
         points="89.63,203.52 96.91,203.52 97.08,204.44 89.8,204.44 "
         id="polygon145" />
      <polygon
         points="90.12,206.26 100.11,206.26 100.28,207.19 90.29,207.19 "
         id="polygon147" />
      <polygon
         points="90.61,209.01 96.95,209.01 97.12,209.93 90.78,209.93 "
         id="polygon149" />
      <polygon
         points="91.11,211.76 95.21,211.76 95.38,212.68 91.27,212.68 "
         id="polygon151" />
      <polygon
         points="91.6,214.5 104.37,214.5 104.53,215.43 91.77,215.43 "
         id="polygon153" />
      <polygon
         points="92.09,217.25 99.37,217.25 99.54,218.17 92.26,218.17 "
         id="polygon155" />
      <polygon
         points="92.58,220 102.57,220 102.74,220.92 92.75,220.92 "
         id="polygon157" />
      <polygon
         points="93.08,222.74 99.42,222.74 99.58,223.66 93.24,223.66 "
         id="polygon159" />
      <polygon
         points="93.57,225.49 97.67,225.49 97.84,226.41 93.73,226.41 "
         id="polygon161" />
      <polygon
         points="94.06,228.23 100.4,228.23 100.57,229.16 94.23,229.16 "
         id="polygon163" />
      <polygon
         points="94.55,230.98 98.66,230.98 98.83,231.9 94.72,231.9 "
         id="polygon165" />
    </g>
    <g
       style="opacity:0.4;isolation:isolate"
       id="g193">
      <polygon
         points="109.14,200.77 141.91,200.77 142.07,201.69 109.3,201.69 "
         id="polygon169" />
      <polygon
         points="109.63,203.52 136.91,203.52 137.08,204.44 109.8,204.44 "
         id="polygon171" />
      <polygon
         points="110.12,206.26 140.11,206.26 140.28,207.19 110.29,207.19 "
         id="polygon173" />
      <polygon
         points="110.61,209.01 136.95,209.01 137.12,209.93 110.78,209.93 "
         id="polygon175" />
      <polygon
         points="111.11,211.76 135.21,211.76 135.38,212.68 111.27,212.68 "
         id="polygon177" />
      <polygon
         points="111.6,214.5 144.37,214.5 144.53,215.43 111.77,215.43 "
         id="polygon179" />
      <polygon
         points="112.09,217.25 139.37,217.25 139.54,218.17 112.26,218.17 "
         id="polygon181" />
      <polygon
         points="112.58,220 142.57,220 142.74,220.92 112.75,220.92 "
         id="polygon183" />
      <polygon
         points="113.08,222.74 139.42,222.74 139.58,223.66 113.24,223.66 "
         id="polygon185" />
      <polygon
         points="113.57,225.49 137.67,225.49 137.84,226.41 113.73,226.41 "
         id="polygon187" />
      <polygon
         points="114.06,228.23 140.4,228.23 140.57,229.16 114.23,229.16 "
         id="polygon189" />
      <polygon
         points="114.55,230.98 138.66,230.98 138.82,231.9 114.72,231.9 "
         id="polygon191" />
    </g>
  </g>
  <g
     id="freepik--speech-bubble--inject-17"
     transform="translate(-76.386717,-119.82)">
    <rect
       x="282.76999"
       y="119.82"
       width="36.130001"
       height="36.130001"
       rx="3.03"
       transform="rotate(180,300.84,137.885)"
       style="fill:#407bff"
       id="rect196" />
    <path
       d="m 305,152.74 c 0,0 -1.84,10.18 -15.29,14.77 0,0 7.64,-7.39 7.64,-14.77 z"
       style="fill:#407bff"
       id="path198" />
    <path
       d="m 302.87,134 v -2.19 l -1.13,-0.11 a 5.73,5.73 0 0 0 -0.84,-2 l 0.72,-0.88 -1.55,-1.55 -0.87,0.73 a 5.81,5.81 0 0 0 -2,-0.84 l -0.11,-1.13 h -2.19 l -0.11,1.13 a 5.81,5.81 0 0 0 -2,0.84 l -0.87,-0.73 -1.55,1.55 0.72,0.88 a 5.73,5.73 0 0 0 -0.84,2 l -1.13,0.11 V 134 l 1.13,0.1 a 5.66,5.66 0 0 0 0.84,2 l -0.72,0.88 1.55,1.55 0.87,-0.73 a 5.81,5.81 0 0 0 2,0.84 l 0.11,1.13 h 2.19 l 0.11,-1.13 a 5.81,5.81 0 0 0 2,-0.84 l 0.87,0.73 1.55,-1.55 -0.72,-0.88 a 5.66,5.66 0 0 0 0.84,-2 z m -6.9,1.87 a 3,3 0 1 1 3,-3 3,3 0 0 1 -2.97,3 z"
       style="opacity:0.9;fill:#ffffff"
       id="path200" />
    <path
       d="m 311.74,140.18 v -1.72 l -0.88,-0.08 a 4.66,4.66 0 0 0 -0.66,-1.59 l 0.57,-0.68 -1.22,-1.22 -0.68,0.57 a 4.66,4.66 0 0 0 -1.59,-0.66 l -0.08,-0.88 h -1.72 l -0.08,0.88 a 4.53,4.53 0 0 0 -1.58,0.66 l -0.69,-0.57 -1.21,1.22 0.56,0.68 a 4.66,4.66 0 0 0 -0.66,1.59 l -0.88,0.08 v 1.72 l 0.88,0.08 a 4.53,4.53 0 0 0 0.66,1.58 l -0.56,0.69 1.21,1.21 0.69,-0.56 a 4.53,4.53 0 0 0 1.58,0.66 l 0.08,0.88 h 1.72 l 0.08,-0.88 a 4.66,4.66 0 0 0 1.59,-0.66 l 0.68,0.56 1.22,-1.21 -0.57,-0.69 a 4.53,4.53 0 0 0 0.66,-1.58 z m -5.4,1.46 a 2.32,2.32 0 1 1 2.32,-2.32 2.32,2.32 0 0 1 -2.32,2.32 z"
       style="opacity:0.6;fill:#ffffff"
       id="path202" />
    <path
       d="m 302.87,145.05 v -1.44 l -0.75,-0.07 a 3.74,3.74 0 0 0 -0.55,-1.33 l 0.48,-0.58 -1,-1 -0.58,0.48 a 3.92,3.92 0 0 0 -1.33,-0.56 l -0.07,-0.74 h -1.44 l -0.07,0.74 a 3.92,3.92 0 0 0 -1.33,0.56 l -0.58,-0.48 -1,1 0.48,0.58 a 3.74,3.74 0 0 0 -0.55,1.33 l -0.75,0.07 v 1.44 l 0.75,0.07 a 3.9,3.9 0 0 0 0.55,1.33 l -0.48,0.57 1,1 0.58,-0.47 a 3.9,3.9 0 0 0 1.33,0.55 l 0.07,0.74 h 1.44 l 0.07,-0.74 a 3.9,3.9 0 0 0 1.33,-0.55 l 0.58,0.47 1,-1 -0.48,-0.57 a 3.9,3.9 0 0 0 0.55,-1.33 z m -4.54,1.23 a 2,2 0 1 1 1.95,-1.95 2,2 0 0 1 -1.95,1.95 z"
       style="opacity:0.4;fill:#ffffff"
       id="path204" />
  </g>
  <g
     id="freepik--Character--inject-17"
     transform="translate(-76.386717,-119.82)">
    <g
       id="freepik--group--inject-17">
      <polygon
         points="284.99,388.17 292.94,389.27 294.06,408.2 286.09,407.11 "
         style="fill:#ebb376"
         id="polygon207" />
      <polygon
         points="285.62,399 293.57,399.7 292.94,389.27 284.99,388.18 "
         style="opacity:0.2;isolation:isolate"
         id="polygon209" />
      <path
         d="m 285.49,406.15 9,-0.57 a 0.57,0.57 0 0 1 0.63,0.51 v 0 l 0.88,7.1 a 1.4,1.4 0 0 1 -1.31,1.5 c -3.14,0.15 -4.65,0.06 -8.61,0.28 -2.43,0.14 -7.22,0.66 -10.58,0.33 -3.36,-0.33 -2.94,-3.63 -1.49,-3.79 3.43,-0.39 8,-2.91 10.13,-4.83 a 2.24,2.24 0 0 1 1.35,-0.53 z"
         style="fill:#263238"
         id="path211" />
      <path
         d="m 285.3,407.12 v 0 c 0,-0.14 -0.13,-2.41 -1,-3.13 a 1.16,1.16 0 0 0 -0.9,-0.21 0.77,0.77 0 0 0 -0.68,0.6 2.91,2.91 0 0 0 0.79,1.84 3.25,3.25 0 0 0 -2.22,-0.41 0.74,0.74 0 0 0 -0.41,0.56 1,1 0 0 0 0.3,1 2.13,2.13 0 0 0 1.52,0.3 9.31,9.31 0 0 0 2.1,-0.42 0.08,0.08 0 0 0 0.07,0 0.33,0.33 0 0 0 0,-0.06 c 0,0 0.19,0 0.2,-0.07 h 0.17 z m -2.21,-2.66 c 0,-0.11 0.07,-0.25 0.33,-0.3 h 0.09 a 0.51,0.51 0 0 1 0.41,0.15 c 0.51,0.42 0.65,1.69 0.68,2.45 l -0.16,-0.09 a 3.78,3.78 0 0 1 -1.35,-2.21 z m -1.64,2.65 a 0.71,0.71 0 0 1 -0.18,-0.66 0.33,0.33 0 0 1 0.2,-0.27 c 0.51,-0.24 1.88,0.35 2.85,0.88 -1.41,0.37 -2.47,0.39 -2.87,0.05 z"
         style="fill:#407bff"
         id="path213" />
      <path
         d="m 293.74,296.88 1.94,-12.18 44.66,-2.7 c 0,0 4.75,25.34 1.1,32.09 -6.51,12.05 -41.61,6 -51.89,7.15 6.14,25.11 5.54,74.18 5.54,74.18 l -14.67,1.12 c 0,0 -11.28,-52.87 -13.57,-78 -1.54,-16.92 12.51,-16.54 26.89,-21.66 z"
         style="fill:#263238"
         id="path215" />
      <path
         d="m 293.74,296.88 1.94,-12.18 44.66,-2.7 c 0,0 4.75,25.34 1.1,32.09 -6.51,12.05 -41.61,6 -51.89,7.15 6.14,25.11 5.54,74.18 5.54,74.18 l -14.67,1.12 c 0,0 -11.28,-52.87 -13.57,-78 -1.54,-16.92 12.51,-16.54 26.89,-21.66 z"
         style="opacity:0.2;isolation:isolate"
         id="path217" />
      <path
         d="m 261.07,193.7 c 0.2,1.88 -0.6,3.5 -1.79,3.64 -1.19,0.14 -2.33,-1.29 -2.54,-3.16 -0.21,-1.87 0.6,-3.51 1.79,-3.64 1.19,-0.13 2.33,1.28 2.54,3.16 z"
         style="fill:none;stroke:#263238;stroke-width:0.5px;stroke-miterlimit:10"
         id="path219" />
      <path
         d="m 261.1,203.37 a 12,12 0 0 0 0.62,1.24 12.91,12.91 0 0 0 5.58,5.29 12.24,12.24 0 0 0 1.84,0.75 11.77,11.77 0 0 0 10.05,-1.24 12,12 0 0 0 3.36,-3.28 c 3.82,-5.44 2.79,-10.8 1.77,-20 A 12.66,12.66 0 0 0 265,176.61 c -8.33,5.15 -7.26,18.9 -3.9,26.76 z"
         style="fill:#e4897b"
         id="path221" />
      <path
         d="m 267.3,209.9 a 12.24,12.24 0 0 0 1.84,0.75 11.77,11.77 0 0 0 10.05,-1.24 14,14 0 0 0 -2.15,-2.82 18.23,18.23 0 0 0 -9.74,3.31 z"
         style="opacity:0.2;isolation:isolate"
         id="path223" />
      <path
         d="m 291.39,212.34 c -1.57,5.94 -11.76,10.71 -11.76,10.71 0,0 -6.87,2.18 -6.83,-0.44 3.08,-2.79 3.7,-5.48 3.06,-8 a 11.73,11.73 0 0 0 -2.19,-4.15 24.76,24.76 0 0 0 -1.7,-2 l 6,-16 c 2.17,6.6 7.03,18.2 13.42,19.88 z"
         style="fill:#e4897b"
         id="path225" />
      <path
         d="m 262.39,183.24 c 0,0 -2.58,8.69 6.33,14.93 0,0 3.75,8 5.84,9 2.09,1 6.8,0.39 8.4,0 1.6,-0.39 9.81,-7.23 7.44,-23.26 -2.37,-16.03 -15.84,-11 -15.84,-11 z"
         style="fill:#263238"
         id="path227" />
      <path
         d="m 269.93,194 a 6,6 0 0 1 -2.34,4.56 c -1.72,1.1 -3.38,-1.31 -3.58,-4.09 -0.16,-2.47 0.52,-6.09 2.58,-6 2.06,0.09 3.57,2.99 3.34,5.53 z"
         style="fill:#e4897b"
         id="path229" />
      <path
         d="m 280.08,172.24 c 0,0 -9.89,-2.71 -17.61,1.38 0,0 1.52,-1 1.06,-2.26 -0.46,-1.26 -4,3.3 -4,3.3 0,0 1.19,-4.34 0.46,-4.74 -0.73,-0.4 -5.27,6.4 -3,9.7 0,0 -4.4,-3 -3.62,-0.66 0.78,2.34 0.78,6.39 10.93,4.41 10.15,-1.98 15.78,-11.13 15.78,-11.13 z"
         style="fill:#263238"
         id="path231" />
      <line
         x1="256.73999"
         y1="194.17999"
         x2="263.98999"
         y2="191.14999"
         style="fill:none;stroke:#263238;stroke-width:0.5px;stroke-miterlimit:10"
         id="line233" />
      <path
         d="m 271.67,215.88 c 0,0 6.69,-8.26 17.37,-8.15 l 6.53,5.45 z"
         style="fill:#407bff"
         id="path235" />
      <path
         d="m 271.67,215.88 c 0,0 6.69,-8.26 17.37,-8.15 l 6.53,5.45 z"
         style="opacity:0.5;isolation:isolate;fill:#ffffff"
         id="path237" />
      <path
         d="M 231.27,250.13 224,246.82 c 0,0 -6.06,-1.13 -8.57,-0.56 -2.51,0.57 -8,8.09 -7.91,9 0.09,0.91 9.6,3.16 9.81,3.16 0.21,0 4.32,-2.32 4.32,-2.32 l 6.71,2.32 z"
         style="fill:#e4897b"
         id="path239" />
      <polygon
         points="277.67,389.75 297.04,388.85 296.81,396.14 279.18,397.3 "
         style="fill:#407bff"
         id="polygon241" />
      <polygon
         points="277.67,389.75 297.04,388.85 296.81,396.14 279.18,397.3 "
         style="opacity:0.2;fill:#ffffff"
         id="polygon243" />
      <polygon
         points="262.64,390.43 270.65,389.85 275.68,408.13 267.66,408.72 "
         style="fill:#ebb376"
         id="polygon245" />
      <path
         d="m 266.58,409 h -0.14 v 0 c 0,-0.12 -0.41,-2.37 -1.38,-2.9 a 0.9,0.9 0 0 0 -0.8,0 0.7,0.7 0 0 0 -0.49,0.73 3,3 0 0 0 1.18,1.63 3.21,3.21 0 0 0 -2.24,0.06 0.7,0.7 0 0 0 -0.28,0.63 1,1 0 0 0 0.51,0.94 2.15,2.15 0 0 0 1.56,0 10,10 0 0 0 2,-0.84 h 0.07 c 0,0 0,-0.05 0,-0.07 a 0.11,0.11 0 0 0 0.01,-0.18 z m -2.41,-2.24 c 0,-0.11 0,-0.25 0.27,-0.35 h 0.09 a 0.55,0.55 0 0 1 0.43,0.06 c 0.58,0.31 1,1.53 1.17,2.26 l -0.18,-0.05 c -0.79,-0.49 -1.71,-1.39 -1.78,-1.93 z m -1.05,2.94 a 0.71,0.71 0 0 1 -0.31,-0.61 0.36,0.36 0 0 1 0.13,-0.31 c 0.46,-0.34 1.92,0 3,0.27 -1.33,0.65 -2.35,0.89 -2.82,0.64 z"
         style="fill:#407bff"
         id="path247" />
      <polygon
         points="265.51,400.89 273.43,399.92 270.65,389.85 262.64,390.44 "
         style="opacity:0.2;isolation:isolate"
         id="polygon249" />
      <path
         d="M 259.92,399.6 274,395.45 c 0,0 -8.43,-47.58 -17,-64.08 0.64,-0.21 1.49,-0.48 2.54,-0.79 1.89,-0.57 4.4,-1.28 7.35,-2.1 20.52,-5.69 62.11,-16.36 62.11,-16.36 l -19,-17.73 c 0,0 -75.68,11.54 -77.25,31.48 -0.69,9.59 27.17,73.73 27.17,73.73 z"
         style="fill:#263238"
         id="path251" />
      <polygon
         points="255.81,393.5 274.57,388.58 275.87,395.76 258.86,400.57 "
         style="fill:#407bff"
         id="polygon253" />
      <polygon
         points="255.81,393.5 274.57,388.58 275.87,395.76 258.86,400.57 "
         style="opacity:0.2;fill:#ffffff"
         id="polygon255" />
      <path
         d="m 266.88,407.9 8.68,-2.42 a 0.57,0.57 0 0 1 0.72,0.36 v 0 l 2.35,6.76 a 1.43,1.43 0 0 1 -1,1.75 c -3.05,0.79 -4.54,1 -8.37,2.06 -2.35,0.65 -6.93,2.15 -10.28,2.53 -3.35,0.38 -3.63,-2.94 -2.25,-3.39 3.28,-1.1 7.21,-4.52 8.91,-6.84 a 2.22,2.22 0 0 1 1.24,-0.81 z"
         style="fill:#263238"
         id="path257" />
      <path
         d="m 261.29,224 c 0,0 12.65,-14.16 29.54,-12.7 16.89,1.46 33.81,14.5 42.22,35 8.41,20.5 11,51.5 11,51.5 0,0 -27.34,7.82 -55.12,0.69 A 295.54,295.54 0 0 0 261.29,224 Z"
         style="fill:#407bff"
         id="path259" />
      <path
         d="m 261.29,224 c 0,0 12.65,-14.16 29.54,-12.7 16.89,1.46 33.81,14.5 42.22,35 8.41,20.5 11,51.5 11,51.5 0,0 -27.34,7.82 -55.12,0.69 A 295.54,295.54 0 0 0 261.29,224 Z"
         style="opacity:0.6;isolation:isolate;fill:#ffffff"
         id="path261" />
      <path
         d="m 261.29,224 c -4.26,4.43 -16.45,24.74 -19.92,25.5 -3.47,0.76 -8.52,-2.37 -12.48,-1.18 -3.96,1.19 -8,4.8 -7.1,7.1 0.9,2.3 10.21,8.46 21.74,8.8 9.87,0.28 30.67,-24.29 30.67,-24.29 0,-9.55 -12.91,-15.93 -12.91,-15.93 z"
         style="fill:#407bff"
         id="path263" />
      <path
         d="m 261.29,224 c -4.26,4.43 -16.45,24.74 -19.92,25.5 -3.47,0.76 -8.52,-2.37 -12.48,-1.18 -3.96,1.19 -8,4.8 -7.1,7.1 0.9,2.3 10.21,8.46 21.74,8.8 9.87,0.28 30.67,-24.29 30.67,-24.29 0,-9.55 -12.91,-15.93 -12.91,-15.93 z"
         style="opacity:0.5;isolation:isolate;fill:#ffffff"
         id="path265" />
      <path
         d="m 343,304.56 c -28.68,5.54 -56.81,-5.8 -56.81,-5.8 0,0 -0.07,-2.06 -0.43,-5.27 v 0 c -0.13,-1.22 -0.31,-2.61 -0.53,-4.11 -0.22,-1.5 -0.46,-2.81 -0.76,-4.32 a 70.84,70.84 0 0 0 -3.63,-12.63 c -1.59,-3.95 -2.83,-7.2 -3.78,-9.87 q -0.21,-0.57 -0.39,-1.11 c -0.41,-1.17 -0.76,-2.22 -1.06,-3.15 -2,-6.36 -1.77,-7.57 -1.77,-7.57 7.26,1 7.8,-13.93 -1.91,-25.05 a 12.47,12.47 0 0 0 -8,-4.32 c 0,0 -1,-1.58 9.25,-7.35 5.52,-3.11 11.7,-0.82 16.27,-0.82 7.34,0 8.44,-1 8.44,-1 12,0 26.48,15.83 35.83,34.66 0.47,0.94 0.93,1.89 1.37,2.85 0.44,0.96 0.9,2 1.33,3 a 88.05,88.05 0 0 1 6.56,23 c 0.1,0.81 0.2,1.59 0.28,2.35 0.13,1.08 0.24,2.11 0.35,3.1 0.13,1.22 0.24,2.38 0.34,3.47 1.82,19.18 -0.95,19.94 -0.95,19.94 z"
         style="fill:#407bff"
         id="path267" />
      <path
         d="m 277.1,262.55 11.81,9.65 -4.4,12.85 a 70.84,70.84 0 0 0 -3.63,-12.63 c -1.59,-3.95 -2.83,-7.2 -3.78,-9.87 z"
         style="opacity:0.3;isolation:isolate;fill:#ffffff"
         id="path269" />
      <polygon
         points="309.21,288.82 288.91,272.2 295.57,252.71 312.77,272.08 "
         style="opacity:0.3;isolation:isolate;fill:#ffffff"
         id="polygon271" />
      <polygon
         points="329.06,290.42 312.77,272.08 317.72,248.83 333.66,267.01 "
         style="opacity:0.3;isolation:isolate;fill:#ffffff"
         id="polygon273" />
      <path
         d="m 343.32,278 -9.66,-11 2.82,-14.37 a 88.05,88.05 0 0 1 6.56,23 c 0.1,0.86 0.2,1.64 0.28,2.37 z"
         style="opacity:0.3;isolation:isolate;fill:#ffffff"
         id="path275" />
      <g
         style="opacity:0.3;isolation:isolate"
         id="g279">
        <path
           d="m 335.15,249.65 -3,12.57 -15.58,-16.72 -5,22.11 -17.31,-20.61 -6.42,22 -11.13,-7.6 c -0.41,-1.17 -0.76,-2.22 -1.06,-3.15 l 11,7.54 6.7,-23 17.13,20.43 4.93,-21.87 15.59,16.78 2.74,-11.33 c 0.51,0.94 0.97,1.89 1.41,2.85 z"
           style="fill:#ffffff"
           id="path277" />
      </g>
      <g
         style="opacity:0.3;isolation:isolate"
         id="g283">
        <path
           d="m 344,284.6 -7.38,-8.6 -5,24.56 -16.41,-18.05 -3.58,14.63 -20.4,-17.54 -5.44,13.88 c -0.13,-1.22 -0.31,-2.61 -0.53,-4.11 l 5.14,-13.13 20.06,17.25 3.7,-15.1 16.29,17.91 5,-24.7 8.19,9.53 c 0.16,1.22 0.27,2.38 0.36,3.47 z"
           style="fill:#ffffff"
           id="path281" />
      </g>
    </g>
    <path
       d="m 266.26,317.44 h 89.92 v 6.69 a 5,5 0 0 1 -5,5 h -79.92 a 5,5 0 0 1 -5,-5 z"
       transform="rotate(180,311.22,323.285)"
       style="fill:#407bff"
       id="path286" />
    <path
       d="m 266.26,317.44 h 89.92 v 6.69 a 5,5 0 0 1 -5,5 h -79.92 a 5,5 0 0 1 -5,-5 z"
       transform="rotate(180,311.22,323.285)"
       style="opacity:0.2;isolation:isolate"
       id="path288" />
    <path
       d="m 353.25,395.68 -28.81,-2.83 v -40.5 H 313 v 40.48 l -28.93,2.85 a 5.6,5.6 0 0 0 -5.06,5.58 v 4.33 h 79.28 v -4.33 a 5.6,5.6 0 0 0 -5.04,-5.58 z"
       style="fill:#263238"
       id="path290" />
    <path
       d="m 353.25,395.68 -28.81,-2.83 v -40.5 H 313 v 40.48 l -28.93,2.85 a 5.6,5.6 0 0 0 -5.06,5.58 v 4.33 h 79.28 v -4.33 a 5.6,5.6 0 0 0 -5.04,-5.58 z"
       style="opacity:0.2;isolation:isolate;fill:#ffffff"
       id="path292" />
    <circle
       cx="282.07999"
       cy="410.95001"
       r="7.4699998"
       style="fill:#263238"
       id="circle294" />
    <circle
       cx="355.26001"
       cy="410.95001"
       r="7.4699998"
       style="fill:#263238"
       id="circle296" />
    <path
       d="m 311.05,325 h 15.35 v 31.93 a 4.13,4.13 0 0 1 -4.13,4.13 h -7.09 a 4.13,4.13 0 0 1 -4.13,-4.13 z"
       style="fill:#263238"
       id="path298" />
    <path
       d="m 311.05,325 h 15.35 v 31.93 a 4.13,4.13 0 0 1 -4.13,4.13 h -7.09 a 4.13,4.13 0 0 1 -4.13,-4.13 z"
       style="opacity:0.3;isolation:isolate;fill:#ffffff"
       id="path300" />
    <path
       d="m 301.64,325 c 0,0 14.36,-45.69 16.76,-112.35 a 14.82,14.82 0 0 1 14.82,-14.24 h 26.58 a 14.83,14.83 0 0 1 14.84,14.75 c 0.1,24.22 -1.59,73.72 -15.25,114 z"
       style="fill:#407bff"
       id="path302" />
    <path
       d="m 301.64,325 c 0,0 14.36,-45.69 16.76,-112.35 a 14.82,14.82 0 0 1 14.82,-14.24 h 26.58 a 14.83,14.83 0 0 1 14.84,14.75 c 0.1,24.22 -1.59,73.72 -15.25,114 z"
       style="opacity:0.2;isolation:isolate"
       id="path304" />
    <path
       d="m 310.71,324.42 c 0,0 13.65,-48.56 15.91,-110 a 13.66,13.66 0 0 1 13.67,-13.14 h 24.51 a 13.68,13.68 0 0 1 13.69,13.61 c 0.09,22.33 -1.47,72.45 -14.07,109.57 z"
       style="fill:#263238"
       id="path306" />
    <path
       d="m 364.42,324.42 h -53.71 c 0,0 13.65,-48.56 15.91,-110 a 13.66,13.66 0 0 1 13.67,-13.14 h 24.51 a 13.68,13.68 0 0 1 13.69,13.61 c 0.09,22.29 -1.49,72.41 -14.07,109.53 z"
       style="opacity:0.3;isolation:isolate;fill:#ffffff"
       id="path308" />
    <path
       d="m 321.23,289.12 c 0,0 -29.14,-5.89 -57.27,-3 -28.13,2.89 13.24,39.61 13.24,39.61 h 5.8 c 0,0 -21.92,-23.31 -20.7,-29.11 1.22,-5.8 56.42,1.85 56.42,1.85 z"
       style="fill:#263238"
       id="path310" />
    <path
       d="m 321.23,289.12 c 0,0 -29.14,-5.89 -57.27,-3 -28.13,2.89 13.24,39.61 13.24,39.61 h 5.8 c 0,0 -21.92,-23.31 -20.7,-29.11 1.22,-5.8 56.42,1.85 56.42,1.85 z"
       style="opacity:0.3;isolation:isolate;fill:#ffffff"
       id="path312" />
    <path
       d="m 364.42,324.42 h -47.71 c 0,0 13.65,-48.56 15.91,-110 a 13.66,13.66 0 0 1 13.67,-13.14 h 18.51 a 13.68,13.68 0 0 1 13.69,13.61 c 0.09,22.29 -1.49,72.41 -14.07,109.53 z"
       style="opacity:0.2;isolation:isolate"
       id="path314" />
    <rect
       x="263.06"
       y="323.28"
       width="102.33"
       height="5.8400002"
       rx="2.01"
       transform="rotate(180,314.22,326.205)"
       style="fill:#263238"
       id="rect316" />
    <rect
       x="263.06"
       y="323.28"
       width="102.33"
       height="5.8400002"
       rx="2.01"
       transform="rotate(180,314.22,326.205)"
       style="opacity:0.6;isolation:isolate;fill:#ffffff"
       id="rect318" />
  </g>
</svg>
